<?xml version="1.0" encoding="UTF-8"?>
<svg xmlns="http://www.w3.org/2000/svg" xmlns:xlink="http://www.w3.org/1999/xlink" width="100px" height="100px" viewBox="0 0 100 100" version="1.1">
<g id="surface1">
<path style=" stroke:none;fill-rule:nonzero;fill:rgb(0%,0%,0%);fill-opacity:1;" d="M 49.785156 26.492188 C 49.71875 26.5625 48.691406 27.285156 47.511719 28.09375 C 46.328125 28.894531 44.601562 30.085938 43.671875 30.722656 C 42.746094 31.355469 41.347656 32.324219 40.578125 32.851562 L 39.160156 33.828125 L 39.160156 36.101562 L 40.351562 36.160156 C 41.886719 36.25 59.550781 36.25 60.34375 36.171875 L 60.9375 36.101562 L 60.9375 33.816406 L 59.84375 33.074219 C 59.238281 32.664062 58.125 31.914062 57.375 31.386719 C 55.578125 30.125 51.964844 27.644531 51.269531 27.175781 C 51.132812 27.089844 50.839844 26.863281 50.617188 26.6875 C 50.175781 26.335938 49.992188 26.296875 49.785156 26.492188 Z M 55.878906 33.074219 C 56.503906 33.496094 57.023438 33.855469 57.023438 33.886719 C 57.03125 33.914062 53.886719 33.933594 50.050781 33.933594 C 46.210938 33.933594 43.066406 33.914062 43.078125 33.886719 C 43.078125 33.855469 43.527344 33.542969 44.074219 33.183594 C 44.621094 32.820312 45.703125 32.097656 46.484375 31.5625 C 47.265625 31.023438 48.378906 30.261719 48.976562 29.863281 L 50.050781 29.121094 L 52.394531 30.722656 C 53.683594 31.589844 55.253906 32.65625 55.878906 33.074219 Z M 55.878906 33.074219 "/>
<path style=" stroke:none;fill-rule:nonzero;fill:rgb(0%,0%,0%);fill-opacity:1;" d="M 44.53125 37.585938 C 44.25 37.636719 44.179688 37.695312 44.160156 37.917969 C 44.09375 38.476562 44.953125 39.394531 45.800781 39.675781 L 46.242188 39.824219 L 46.269531 45.351562 L 46.289062 50.878906 L 42.96875 50.878906 L 42.96875 53.125 L 57.128906 53.125 L 57.179688 52.898438 C 57.207031 52.78125 57.226562 52.285156 57.207031 51.804688 L 57.179688 50.925781 L 55.566406 50.878906 L 53.957031 50.828125 L 53.957031 39.8125 L 54.394531 39.65625 C 55.214844 39.363281 56.171875 38.210938 55.988281 37.742188 C 55.96875 37.675781 55.675781 37.597656 55.351562 37.558594 C 54.601562 37.480469 44.992188 37.5 44.53125 37.585938 Z M 51.757812 45.359375 L 51.757812 50.878906 L 48.535156 50.878906 L 48.535156 39.84375 L 51.757812 39.84375 Z M 51.757812 45.359375 "/>
<path style=" stroke:none;fill-rule:nonzero;fill:rgb(0%,0%,0%);fill-opacity:1;" d="M 40.800781 53.582031 C 40.539062 53.601562 40.332031 53.652344 40.324219 53.691406 C 40.285156 54.0625 40.304688 55.761719 40.34375 55.808594 C 40.421875 55.886719 59.550781 55.886719 59.667969 55.808594 C 59.726562 55.78125 59.765625 55.28125 59.765625 54.675781 L 59.765625 53.613281 L 51.242188 53.613281 C 46.542969 53.613281 42.382812 53.59375 41.984375 53.574219 C 41.582031 53.554688 41.054688 53.554688 40.800781 53.582031 Z M 40.800781 53.582031 "/>
<path style=" stroke:none;fill-rule:nonzero;fill:rgb(0%,0%,0%);fill-opacity:1;" d="M 68.234375 62.207031 C 66.328125 62.539062 65.332031 64.167969 65.605469 66.53125 C 65.773438 67.976562 66.347656 68.855469 67.472656 69.363281 C 68.175781 69.675781 69.511719 69.707031 70.265625 69.421875 C 71.046875 69.128906 71.769531 68.417969 72.070312 67.625 C 72.402344 66.785156 72.402344 65.058594 72.082031 64.238281 C 71.496094 62.742188 69.914062 61.914062 68.234375 62.207031 Z M 69.84375 63.457031 C 70.949219 64.089844 71.242188 66.679688 70.34375 67.851562 C 69.628906 68.796875 68.234375 68.71875 67.558594 67.703125 C 67.148438 67.089844 67.0625 66.660156 67.109375 65.613281 C 67.148438 64.765625 67.1875 64.597656 67.441406 64.199219 C 67.597656 63.945312 67.84375 63.652344 67.980469 63.542969 C 68.488281 63.171875 69.289062 63.132812 69.84375 63.457031 Z M 69.84375 63.457031 "/>
<path style=" stroke:none;fill-rule:nonzero;fill:rgb(0%,0%,0%);fill-opacity:1;" d="M 14.015625 62.382812 C 13.125 62.683594 12.5 63.320312 12.148438 64.257812 C 12.03125 64.578125 11.984375 65.027344 11.972656 65.917969 C 11.964844 67.441406 12.160156 68.035156 12.929688 68.808594 C 13.585938 69.453125 14.171875 69.65625 15.226562 69.617188 C 15.851562 69.589844 16.054688 69.53125 16.386719 69.304688 C 16.777344 69.050781 16.796875 69.050781 16.796875 69.238281 C 16.796875 69.414062 16.867188 69.433594 17.433594 69.433594 L 18.066406 69.433594 L 18.066406 65.722656 L 16.855469 65.722656 C 15.519531 65.722656 15.527344 65.710938 15.527344 66.425781 C 15.527344 66.6875 15.546875 66.699219 16.015625 66.699219 C 16.582031 66.699219 16.691406 66.835938 16.621094 67.449219 C 16.5625 68.007812 16.171875 68.378906 15.546875 68.457031 C 14.640625 68.574219 14.140625 68.261719 13.691406 67.285156 C 13.476562 66.824219 13.4375 66.609375 13.4375 65.808594 C 13.4375 64.96875 13.46875 64.8125 13.730469 64.296875 C 14.121094 63.523438 14.40625 63.328125 15.1875 63.328125 C 15.898438 63.328125 16.113281 63.464844 16.445312 64.160156 L 16.652344 64.597656 L 17.921875 64.597656 L 17.902344 64.21875 C 17.851562 63.417969 17.0625 62.566406 16.132812 62.304688 C 15.585938 62.15625 14.5625 62.195312 14.015625 62.382812 Z M 14.015625 62.382812 "/>
<path style=" stroke:none;fill-rule:nonzero;fill:rgb(0%,0%,0%);fill-opacity:1;" d="M 54.394531 62.292969 C 53.066406 62.703125 52.402344 63.964844 52.921875 65.105469 C 53.183594 65.671875 53.761719 66.054688 54.875 66.414062 C 56.261719 66.855469 56.640625 67.15625 56.640625 67.820312 C 56.640625 68.308594 55.761719 68.75 55.078125 68.601562 C 54.660156 68.515625 54.140625 68.035156 54.003906 67.617188 L 53.886719 67.273438 L 53.242188 67.304688 L 52.589844 67.332031 L 52.558594 67.675781 C 52.519531 68.125 52.902344 68.710938 53.507812 69.121094 C 54.101562 69.53125 54.472656 69.628906 55.429688 69.628906 C 57.050781 69.628906 57.921875 68.992188 58.078125 67.683594 C 58.144531 67.089844 57.871094 66.433594 57.394531 66.074219 C 57.199219 65.925781 56.503906 65.613281 55.851562 65.378906 C 54.582031 64.929688 54.238281 64.695312 54.140625 64.1875 C 54.054688 63.75 54.484375 63.320312 55.117188 63.230469 C 55.820312 63.125 56.386719 63.445312 56.632812 64.082031 C 56.730469 64.34375 56.757812 64.355469 57.421875 64.355469 C 58.175781 64.355469 58.175781 64.355469 58.007812 63.75 C 57.851562 63.210938 57.460938 62.800781 56.789062 62.488281 C 56.289062 62.246094 56.085938 62.207031 55.421875 62.214844 C 54.992188 62.214844 54.53125 62.253906 54.394531 62.292969 Z M 54.394531 62.292969 "/>
<path style=" stroke:none;fill-rule:nonzero;fill:rgb(0%,0%,0%);fill-opacity:1;" d="M 38.984375 64.792969 C 39.003906 66.160156 38.984375 67.246094 38.945312 67.207031 C 38.90625 67.167969 38.195312 66.082031 37.363281 64.792969 L 35.859375 62.449219 L 35.148438 62.421875 C 34.648438 62.402344 34.414062 62.429688 34.367188 62.519531 C 34.316406 62.585938 34.277344 64.199219 34.277344 66.082031 L 34.277344 69.53125 L 34.796875 69.53125 C 35.070312 69.53125 35.402344 69.5 35.527344 69.472656 L 35.753906 69.402344 L 35.722656 67.070312 C 35.703125 65.476562 35.722656 64.785156 35.792969 64.890625 C 35.878906 65.039062 38.476562 68.738281 38.820312 69.207031 C 38.957031 69.402344 39.0625 69.433594 39.640625 69.433594 C 40.167969 69.433594 40.324219 69.394531 40.371094 69.277344 C 40.402344 69.1875 40.429688 67.617188 40.429688 65.78125 L 40.429688 62.429688 L 39.921875 62.363281 C 39.640625 62.332031 39.308594 62.304688 39.179688 62.304688 L 38.957031 62.304688 Z M 38.984375 64.792969 "/>
<path style=" stroke:none;fill-rule:nonzero;fill:rgb(0%,0%,0%);fill-opacity:1;" d="M 42.453125 62.371094 L 42.1875 62.410156 L 42.207031 65.898438 L 42.238281 69.382812 L 43.996094 69.414062 C 45.390625 69.433594 45.851562 69.402344 46.25 69.277344 C 46.992188 69.042969 47.648438 68.503906 47.988281 67.851562 C 48.242188 67.351562 48.273438 67.167969 48.320312 66.132812 C 48.378906 64.539062 48.234375 64.03125 47.480469 63.289062 C 46.691406 62.5 46.269531 62.371094 44.289062 62.34375 C 43.429688 62.332031 42.609375 62.34375 42.453125 62.371094 Z M 46.015625 63.691406 C 46.203125 63.835938 46.464844 64.167969 46.582031 64.421875 C 46.777344 64.824219 46.808594 65.039062 46.808594 65.996094 C 46.796875 66.960938 46.769531 67.148438 46.574219 67.546875 C 46.242188 68.171875 45.851562 68.359375 44.679688 68.425781 L 43.75 68.484375 L 43.75 63.359375 L 44.707031 63.398438 C 45.578125 63.425781 45.703125 63.457031 46.015625 63.691406 Z M 46.015625 63.691406 "/>
<path style=" stroke:none;fill-rule:nonzero;fill:rgb(0%,0%,0%);fill-opacity:1;" d="M 59.054688 62.371094 C 59.015625 62.402344 58.984375 62.664062 58.984375 62.957031 L 58.984375 63.476562 L 61.035156 63.476562 L 61.035156 69.53125 L 62.480469 69.53125 L 62.550781 68.523438 C 62.589844 67.976562 62.597656 66.621094 62.578125 65.496094 L 62.550781 63.476562 L 64.660156 63.476562 L 64.628906 62.910156 L 64.601562 62.351562 L 61.855469 62.324219 C 60.351562 62.3125 59.09375 62.332031 59.054688 62.371094 Z M 59.054688 62.371094 "/>
<path style=" stroke:none;fill-rule:nonzero;fill:rgb(0%,0%,0%);fill-opacity:1;" d="M 74.6875 62.371094 C 74.035156 62.410156 74.035156 62.410156 73.976562 62.722656 C 73.945312 62.898438 73.9375 64.480469 73.945312 66.257812 L 73.976562 69.480469 L 74.367188 69.511719 C 74.570312 69.53125 74.894531 69.519531 75.070312 69.480469 L 75.390625 69.421875 L 75.382812 67.644531 C 75.382812 66.667969 75.34375 65.613281 75.304688 65.300781 C 75.265625 65 75.273438 64.746094 75.3125 64.746094 C 75.351562 64.746094 75.390625 64.773438 75.390625 64.8125 C 75.390625 64.863281 75.859375 65.546875 76.425781 66.355469 C 76.992188 67.15625 77.707031 68.183594 78 68.621094 L 78.546875 69.433594 L 79.25 69.433594 C 79.902344 69.433594 79.960938 69.414062 80.019531 69.207031 C 80.050781 69.089844 80.078125 67.507812 80.078125 65.691406 L 80.078125 62.402344 L 79.863281 62.402344 C 79.738281 62.402344 79.40625 62.371094 79.121094 62.332031 L 78.605469 62.273438 L 78.632812 64.824219 C 78.652344 66.230469 78.632812 67.34375 78.605469 67.304688 C 78.574219 67.265625 77.832031 66.121094 76.964844 64.765625 C 76.085938 63.417969 75.363281 62.3125 75.363281 62.324219 C 75.351562 62.332031 75.050781 62.351562 74.6875 62.371094 Z M 74.6875 62.371094 "/>
<path style=" stroke:none;fill-rule:nonzero;fill:rgb(0%,0%,0%);fill-opacity:1;" d="M 19.796875 62.46875 C 19.757812 62.5 19.726562 64.109375 19.726562 66.035156 L 19.726562 69.53125 L 21.191406 69.53125 L 21.191406 66.699219 L 22.03125 66.699219 L 22.804688 68.066406 L 23.585938 69.421875 L 24.347656 69.433594 C 24.921875 69.433594 25.097656 69.402344 25.097656 69.296875 C 25.097656 69.160156 23.886719 66.933594 23.722656 66.757812 C 23.574219 66.601562 23.613281 66.53125 23.867188 66.464844 C 24.550781 66.296875 25.097656 65.4375 25.097656 64.550781 C 25.097656 63.582031 24.511719 62.773438 23.644531 62.507812 C 23.242188 62.390625 19.902344 62.351562 19.796875 62.46875 Z M 22.929688 63.484375 C 23.820312 63.796875 23.800781 65.390625 22.890625 65.644531 C 22.734375 65.691406 22.304688 65.710938 21.925781 65.691406 L 21.242188 65.652344 L 21.210938 64.636719 C 21.203125 64.089844 21.210938 63.574219 21.230469 63.503906 C 21.300781 63.347656 22.492188 63.328125 22.929688 63.484375 Z M 22.929688 63.484375 "/>
<path style=" stroke:none;fill-rule:nonzero;fill:rgb(0%,0%,0%);fill-opacity:1;" d="M 28.90625 62.617188 C 27.460938 66.179688 26.203125 69.402344 26.242188 69.453125 C 26.289062 69.550781 27.460938 69.550781 27.597656 69.453125 C 27.65625 69.414062 27.832031 69.050781 28.007812 68.652344 L 28.3125 67.917969 L 29.609375 67.890625 L 30.910156 67.871094 L 31.203125 68.671875 L 31.496094 69.480469 L 32.167969 69.511719 C 32.539062 69.53125 32.882812 69.5 32.941406 69.441406 C 33 69.382812 32.65625 68.40625 32.03125 66.777344 C 31.484375 65.371094 30.878906 63.796875 30.695312 63.300781 L 30.34375 62.402344 L 29.667969 62.402344 C 29.0625 62.402344 28.996094 62.421875 28.90625 62.617188 Z M 29.882812 64.597656 C 29.953125 64.921875 30.128906 65.515625 30.285156 65.917969 C 30.441406 66.316406 30.566406 66.667969 30.566406 66.699219 C 30.566406 66.726562 30.148438 66.746094 29.640625 66.746094 C 28.984375 66.746094 28.710938 66.707031 28.710938 66.628906 C 28.710938 66.570312 28.75 66.492188 28.800781 66.464844 C 28.839844 66.433594 29.054688 65.808594 29.257812 65.085938 C 29.464844 64.355469 29.660156 63.816406 29.699219 63.886719 C 29.738281 63.953125 29.816406 64.277344 29.882812 64.597656 Z M 29.882812 64.597656 "/>
<path style=" stroke:none;fill-rule:nonzero;fill:rgb(0%,0%,0%);fill-opacity:1;" d="M 81.835938 65.917969 L 81.835938 69.433594 L 86.730469 69.433594 L 86.699219 68.914062 L 86.671875 68.40625 L 84.992188 68.378906 L 83.300781 68.359375 L 83.300781 66.40625 L 86.132812 66.40625 L 86.132812 65.234375 L 83.300781 65.234375 L 83.300781 63.476562 L 86.40625 63.476562 L 86.464844 63.171875 C 86.496094 63.007812 86.523438 62.761719 86.523438 62.636719 L 86.523438 62.402344 L 81.835938 62.402344 Z M 81.835938 65.917969 "/>
</g>
</svg>
